<svg width="72" height="16" fill="none" xmlns="http://www.w3.org/2000/svg"><path d="M15.053 1.313C18.993.054 24 3 24 7.62 24 14 19.065 15 17.333 15c-1.732 0-3.824-.101-7.504-4.283-1.256-1.302-3.391-2.821-1.992-4.514 1.197-1.447 2.8 0 2.8 0l3.665 3.617s1.631 1.447 2.814.16c1.184-1.288 0-2.677-.1-2.85-.101-.175-4.041-4.023-4.041-4.023C11.734 1.92 8.409-.03 5.038 1.66.824 3.772.276 8.2 1.718 11.18c1.444 2.98 4.731 4.428 8.11 3.56" stroke="#fff" stroke-width="1.5" stroke-linecap="round"/><path d="M44.55 10.396a5.769 5.769 0 0 1-.86 1.574 5.486 5.486 0 0 1-1.249 1.195 5.837 5.837 0 0 1-1.564.747 5.888 5.888 0 0 1-1.767.264c-1.02 0-1.919-.161-2.698-.484a5.428 5.428 0 0 1-1.96-1.37 6.033 6.033 0 0 1-1.204-2.11c-.27-.82-.404-1.723-.404-2.707 0-.902.146-1.752.44-2.549a6.348 6.348 0 0 1 1.239-2.083 5.86 5.86 0 0 1 1.924-1.406c.75-.346 1.585-.519 2.505-.519.604 0 1.187.08 1.75.238a5.695 5.695 0 0 1 1.555.676c.474.3.896.668 1.266 1.108.369.433.662.931.878 1.494l-1.634.712a4.76 4.76 0 0 0-.598-1.072 3.944 3.944 0 0 0-.826-.827 3.49 3.49 0 0 0-1.037-.536 3.707 3.707 0 0 0-1.213-.193c-.727 0-1.35.143-1.872.43a3.802 3.802 0 0 0-1.292 1.126 4.872 4.872 0 0 0-.739 1.608 7.283 7.283 0 0 0-.237 1.854c0 .668.085 1.304.255 1.908.176.603.437 1.133.782 1.59.352.452.791.812 1.319 1.082.533.263 1.157.395 1.872.395a3.7 3.7 0 0 0 1.257-.21c.392-.147.75-.347 1.072-.599.328-.252.615-.55.861-.896.246-.352.442-.73.589-1.134l1.59.694Zm2.128-9.263h4.412c.62 0 1.213.064 1.775.193a4.3 4.3 0 0 1 1.486.633c.427.293.767.68 1.02 1.16.251.48.377 1.072.377 1.776 0 .474-.073.905-.22 1.292-.14.38-.343.717-.606 1.01-.264.287-.58.53-.95.73-.369.193-.779.34-1.23.44L56.504 14h-2.197l-3.578-5.379h-2.056V14h-1.995V1.133Zm4.43 5.994c.386 0 .74-.038 1.063-.114.322-.082.6-.211.835-.387a1.74 1.74 0 0 0 .545-.694c.134-.287.202-.642.202-1.064 0-.428-.068-.78-.202-1.055a1.593 1.593 0 0 0-.563-.659 2.184 2.184 0 0 0-.835-.342 5.334 5.334 0 0 0-1.046-.097h-2.434v4.412h2.434Zm7.365-5.994h2.733l3.823 9.606 3.744-9.606h2.699V14h-2.004V3.76L65.372 14h-.888L60.292 3.76V14h-1.82V1.133Z" fill="#fff"/></svg>